<?xml version="1.0" encoding="UTF-8" standalone="no"?>
<!DOCTYPE svg PUBLIC "-//W3C//DTD SVG 1.1//EN" "http://www.w3.org/Graphics/SVG/1.1/DTD/svg11.dtd">
<svg width="100%" height="100%" viewBox="0 0 493 370" version="1.1" xmlns="http://www.w3.org/2000/svg" xmlns:xlink="http://www.w3.org/1999/xlink" xml:space="preserve" xmlns:serif="http://www.serif.com/" style="fill-rule:evenodd;clip-rule:evenodd;stroke-linejoin:round;stroke-miterlimit:2;">
    <g transform="matrix(1,0,0,1,-36,-9)">
        <g id="Layer_1">
            <g>
                <path id="polygon20" d="M191.2,242.29L190.55,213L159.76,193.83L160.4,223.12L191.2,242.29Z" style="fill:rgb(165,57,149);fill-rule:nonzero;"/>
                <path id="path22" d="M234.92,315.52L234.27,286.87L207.35,270.07C206.92,269.86 206.49,269.43 206.27,269.21L206.92,298.07L234.92,315.52Z" style="fill:rgb(165,57,149);fill-rule:nonzero;"/>
                <path id="path24" d="M138.65,354.07L68.23,310.35L66.5,237.12L100.96,222.26L100.31,192.97L45.17,216.66C40.87,218.6 38.28,222.47 38.5,226.99L40.65,314.86C40.65,319.39 43.45,323.92 47.76,326.5L132.19,378.83C136.07,381.2 140.8,381.85 144.9,380.77C145.33,380.56 145.76,380.56 146.19,380.34L198.09,357.95L169.88,340.5L138.65,354.07Z" style="fill:rgb(165,57,149);fill-rule:nonzero;"/>
                <path id="path26" d="M366.29,192.11C366.08,186.94 363.06,181.56 357.9,178.54L255.38,115.01L252.15,116.3L252.79,147.1L333.98,197.5L335.92,279.77L366.93,298.94L368.65,298.3L366.28,192.12L366.29,192.11Z" style="fill:rgb(185,106,171);fill-rule:nonzero;"/>
                <path id="path28" d="M243.53,336.62L148.12,277.61L145.75,178.54L189.26,159.8L188.4,125.56L120.99,154.63C116.04,156.79 113.02,161.31 113.24,166.69L116.04,282.99C116.04,288.37 119.27,293.55 124.44,296.56L236.22,365.91C240.74,368.7 246.34,369.57 251.08,368.06C251.51,367.84 251.94,367.63 252.37,367.63L318.27,339.19L285.54,318.94L243.54,336.61L243.53,336.62Z" style="fill:rgb(185,106,171);fill-rule:nonzero;"/>
                <path id="path30" d="M511.67,110.69L368.45,21.96C363.07,18.73 356.83,17.86 351.45,19.59C351.01,19.8 350.37,20.02 349.94,20.23L210.16,80.54C204.56,82.91 201.12,88.08 201.33,94.32L204.77,243.36C204.99,249.39 208.65,255.42 214.47,258.87L357.69,347.6C362.86,350.83 369.32,351.69 374.7,349.98C375.13,349.76 375.78,349.54 376.21,349.33L515.99,289.03C521.58,286.66 525.04,281.28 524.83,275.24L521.38,126.2C521.17,120.17 517.5,114.35 511.69,110.69M366.08,314.22L241.6,237.11L238.58,107.67L360.05,55.34L484.54,132.44L487.56,261.89L366.09,314.22L366.08,314.22Z" style="fill:rgb(208,76,155);fill-rule:nonzero;"/>
            </g>
        </g>
    </g>
</svg>
